HIERARCHY
ROOT Hips
{
	OFFSET 0.000000 0.000000 0.000000 
	CHANNELS 6 Xposition Yposition Zposition Yrotation Zrotation Xrotation 
	JOINT Lumbar
	{
		OFFSET 0.000000 0.000000 0.000000 
		CHANNELS 3 Zrotation Xrotation Yrotation
		JOINT Neck
		{
			OFFSET 0.000000 0.445665 0.000000 
			CHANNELS 3 Zrotation Xrotation Yrotation
			End Site
			{
				OFFSET 0.000000 0.227535 0.000000 
			}
		}
		JOINT RightShoulder
		{
			OFFSET 0.019635 0.377685 0.194865 
			CHANNELS 3 Zrotation Xrotation Yrotation
			JOINT RightElbow
			{
				OFFSET 0.000000 -0.243375 0.000000 
				CHANNELS 2 Zrotation Yrotation
				JOINT RightWrist
				{
					OFFSET 0.000000 -0.264825 0.000000 
					CHANNELS 2 Zrotation Xrotation
					End Site
					{
						OFFSET 0.006600 -0.176220 0.000990 
					}
				}
			}
		}
		JOINT LeftShoulder
		{
			OFFSET 0.019635 0.377685 -0.194865 
			CHANNELS 3 Zrotation Xrotation Yrotation
			JOINT LeftElbow
			{
				OFFSET 0.000000 -0.243375 0.000000 
				CHANNELS 2 Zrotation Yrotation
				JOINT LeftWrist
				{
					OFFSET 0.000000 -0.264825 0.000000 
					CHANNELS 2 Zrotation Xrotation
					End Site
					{
						OFFSET 0.006600 -0.176220 -0.000990 
					}
				}
			}
		}
	}
	JOINT RightHip
	{
		OFFSET 0.052140 -0.069960 0.075570 
		CHANNELS 3 Zrotation Xrotation Yrotation
		JOINT RightKnee
		{
			OFFSET 0.000000 -0.402270 0.000000 
			CHANNELS 1 Zrotation
			JOINT RightAnkle
			{
				OFFSET 0.000000 -0.404085 0.000000 
				CHANNELS 3 Zrotation Xrotation Yrotation
				End Site
				{
					OFFSET 0.204105 -0.089430 0.008415 
				}
			}
		}
	}
	JOINT LeftHip
	{
		OFFSET 0.052140 -0.069960 -0.075570 
		CHANNELS 3 Zrotation Xrotation Yrotation
		JOINT LeftKnee
		{
			OFFSET 0.000000 -0.402270 0.000000 
			CHANNELS 1 Zrotation
			JOINT LeftAnkle
			{
				OFFSET 0.000000 -0.404085 0.000000 
				CHANNELS 3 Zrotation Xrotation Yrotation
				End Site
				{
					OFFSET 0.204105 -0.089430 -0.008415 
				}
			}
		}
	}
}
MOTION
Frames: 33
Frame Time: 0.02
-0.00044 -0.00014 -0.00044 170.70796 -45.65835 -0.16415 56.02936 2.32382 2.82253 -3.60401 -6.47 -0.1955 137.89981 -69.00735 -78.13349 12.45523 59.66935 5.28784 -8.41021 144.43275 73.80012 87.49865 10.99175 -60.41317 6.04837 9.85336 51.43387 -3.35047 -5.84434 -19.19607 -8.3754 -5.07837 -3.45547 54.74294 6.05312 0.21987 -24.07919 -9.60572 5.3307 3.64001
-0.00118 -0.00015 -0.00072 170.72926 -45.6664 -0.18697 56.13363 2.3019 2.8361 -3.72278 -6.50975 -0.19621 138.88818 -69.10053 -77.03808 12.51256 60.00826 5.28382 -8.42172 146.04339 73.37307 85.94878 10.90929 -61.38712 5.89109 9.89047 51.38279 -3.31997 -5.83611 -19.18607 -8.3785 -5.08609 -3.45924 54.70397 6.10529 0.36087 -24.07356 -9.58516 5.32165 3.63479
-0.00192 -0.00016 -0.00099 170.75064 -45.67431 -0.2097 56.23759 2.27997 2.84956 -3.84143 -6.54926 -0.19691 139.87455 -69.19362 -75.94487 12.56968 60.34631 5.27981 -8.43309 147.65038 72.94696 84.40266 10.827 -62.36021 5.73392 9.92755 51.33167 -3.28957 -5.82802 -19.17611 -8.3816 -5.0938 -3.46301 54.66497 6.15732 0.50157 -24.06794 -9.56464 5.31261 3.62956
-0.00265 -0.00017 -0.00126 170.7719 -45.68231 -0.23245 56.34154 2.2581 2.86307 -3.95988 -6.58888 -0.19761 140.86006 -69.28654 -74.85262 12.62682 60.6842 5.2758 -8.44455 149.25629 72.52116 82.85737 10.74478 -63.33145 5.57708 9.96456 51.28071 -3.25917 -5.81984 -19.16614 -8.3847 -5.1015 -3.46677 54.62609 6.20933 0.64215 -24.06233 -9.54414 5.30359 3.62435
-0.00339 -0.00017 -0.00153 170.79302 -45.6905 -0.25529 56.44578 2.23627 2.87671 -4.07836 -6.62877 -0.19831 141.84711 -69.3795 -73.75866 12.68419 61.0229 5.2718 -8.45621 150.86529 72.09458 81.30878 10.6624 -64.30288 5.42024 10.00159 51.22988 -3.22865 -5.81147 -19.15615 -8.38781 -5.10922 -3.47054 54.5873 6.26148 0.78301 -24.05669 -9.52363 5.29456 3.61915
-0.00413 -0.00018 -0.0018 170.81496 -45.69785 -0.27781 56.54916 2.21412 2.88978 -4.19737 -6.66746 -0.19901 142.83197 -69.47284 -72.66715 12.74079 61.35955 5.26776 -8.46698 152.4679 71.66952 79.768 10.58034 -65.27946 5.26237 10.03875 51.17818 -3.19852 -5.80398 -19.14623 -8.39087 -5.1169 -3.47428 54.54785 6.31327 0.92336 -24.05112 -9.50306 5.2855 3.61388
-0.00487 -0.00019 -0.00208 170.83524 -45.70686 -0.30094 56.65415 2.19264 2.90397 -4.31518 -6.70858 -0.19971 143.82027 -69.56529 -71.57179 12.79887 61.69994 5.26378 -8.4795 154.08173 71.24182 78.2131 10.49773 -66.24421 5.10683 10.07559 51.12823 -3.16763 -5.79475 -19.13618 -8.39403 -5.12464 -3.47807 54.50976 6.36571 1.06453 -24.04543 -9.48264 5.27653 3.60874
-0.00561 -0.0002 -0.00235 170.85702 -45.71437 -0.3235 56.75767 2.17054 2.91718 -4.4341 -6.74736 -0.20041 144.80517 -69.65861 -70.4802 12.8556 62.0369 5.25977 -8.49043 155.685 70.81664 76.67142 10.41559 -67.2206 4.949 10.11276 51.07674 -3.13745 -5.78707 -19.12626 -8.39711 -5.13233 -3.48182 54.47047 6.41756 1.20505 -24.03985 -9.46208 5.26746 3.60349
-0.00634 -0.00021 -0.00262 170.88079 -45.71989 -0.3454 56.85938 2.14768 2.92899 -4.55443 -6.78366 -0.20111 145.78743 -69.75288 -69.39167 12.91062 62.36975 5.25563 -8.49932 157.27711 70.39397 75.14426 10.33412 -68.2091 4.78879 10.15024 51.02303 -3.10812 -5.78153 -19.11644 -8.40007 -5.13997 -3.48552 54.42944 6.46866 1.34443 -24.03437 -9.44136 5.25831 3.5981
-0.00709 -0.00021 -0.0029 170.89355 -45.73638 -0.37122 56.97146 2.12918 2.94822 -4.66684 -6.83537 -0.2018 146.7895 -69.84132 -68.28084 12.97529 62.72651 5.25196 -8.51965 158.93874 69.9551 73.52854 10.2491 -69.12161 4.64353 10.18566 50.98109 -3.07384 -5.76438 -19.10589 -8.40364 -5.14791 -3.4895 54.3976 6.52399 1.48932 -24.02824 -9.42157 5.24974 3.59349
-0.0078 -0.00023 -0.00315 170.92925 -45.73003 -0.38868 57.06169 2.10148 2.95221 -4.79578 -6.85386 -0.20253 147.74663 -69.94227 -67.22025 13.01972 63.03262 5.24745 -8.51603 160.45004 69.55162 72.10311 10.17139 -70.19821 4.46597 10.22557 50.91499 -3.05003 -5.77126 -19.09697 -8.40595 -5.15522 -3.4929 54.34689 6.57046 1.62324 -24.02352 -9.39982 5.23989 3.58723
-0.00841 -0.00028 -0.0033 171.03106 -45.65766 -0.38368 57.09102 2.0484 2.91064 -4.97233 -6.78595 -0.20329 148.60459 -70.07628 -66.27336 13.0071 63.19989 5.2395 -8.44431 161.57471 69.23637 71.17726 10.11531 -71.69621 4.20559 10.27647 50.77626 -3.05496 -5.84896 -19.09183 -8.4045 -5.16081 -3.49456 54.23962 6.59204 1.72134 -24.02254 -9.37268 5.22684 3.57642
-0.00897 -0.00034 -0.00341 171.1553 -45.5629 -0.37019 57.0985 1.98612 2.85445 -5.16506 -6.68381 -0.2041 149.41223 -70.22305 -65.38225 12.97439 63.31616 5.2309 -8.34887 162.54302 68.95844 70.44761 10.06626 -73.36187 3.91222 10.33186 50.6144 -3.07043 -5.95004 -19.08847 -8.40184 -5.16577 -3.49565 54.11424 6.60482 1.8094 -24.02301 -9.3436 5.21245 3.56395
-0.00953 -0.0004 -0.00354 171.26723 -45.48062 -0.36027 57.11671 1.92811 2.80738 -5.34895 -6.59423 -0.20494 150.22808 -70.36491 -64.4803 12.95195 63.45578 5.22335 -8.26593 163.56684 68.66907 69.64166 10.01296 -74.97291 3.62943 10.38645 50.46731 -3.08102 -6.03703 -19.08478 -8.39997 -5.17105 -3.4971 54.00031 6.62204 1.9059 -24.02291 -9.3154 5.19848 3.55224
-0.01016 -0.00046 -0.00369 171.38824 -45.38879 -0.35155 57.13186 1.86966 2.74987 -5.5392 -6.51717 -0.20557 151.10875 -70.50329 -63.51369 12.92489 63.59499 5.21266 -8.17607 164.65865 68.35591 68.77781 9.96418 -76.50357 3.36296 10.43697 50.30238 -3.09184 -6.138 -19.07908 -8.39714 -5.17625 -3.49814 53.87292 6.6375 1.98635 -24.02247 -9.28714 5.18529 3.54051
-0.01064 -0.00051 -0.00378 171.49555 -45.31123 -0.33833 57.14773 1.81002 2.71062 -5.71997 -6.40599 -0.20663 151.83867 -70.65162 -62.6994 12.90242 63.72242 5.2083 -8.09452 165.56841 68.10184 68.08604 9.90761 -78.22839 3.05749 10.49559 50.1689 -3.10487 -6.21624 -19.07796 -8.39594 -5.18139 -3.49985 53.76905 6.65442 2.09743 -24.02307 -9.25861 5.17018 3.52843
-0.01073 -0.00054 -0.00374 171.56044 -45.28144 -0.31469 57.17495 1.74855 2.72541 -5.87111 -6.2086 -0.20892 152.19541 -70.827 -62.25561 12.89967 63.83501 5.22208 -8.04558 166.0415 67.99629 67.77966 9.82804 -80.55657 2.62878 10.58711 50.13023 -3.11971 -6.21853 -19.08938 -8.40044 -5.18723 -3.50414 53.73677 6.67858 2.29927 -24.02609 -9.22923 5.14983 3.51562
-0.01067 -0.00057 -0.00364 171.6106 -45.26628 -0.28681 57.20288 1.68637 2.75905 -6.01193 -5.97819 -0.21163 152.3952 -71.0115 -61.97106 12.90162 63.93674 5.24224 -8.00489 166.33064 67.95014 67.64836 9.74026 -83.0523 2.16668 10.68408 50.12369 -3.1367 -6.19831 -19.10531 -8.40648 -5.19291 -3.50902 53.72846 6.70431 2.53162 -24.03011 -9.19974 5.12765 3.50254
-0.01068 -0.0006 -0.00357 171.66691 -45.24248 -0.26095 57.22787 1.62504 2.78406 -6.15731 -5.76301 -0.21411 152.64826 -71.18999 -61.63613 12.90034 64.03978 5.25901 -7.95819 166.68707 67.88014 67.46304 9.65622 -85.40258 1.73498 10.77137 50.10087 -3.15383 -6.1936 -19.11895 -8.41121 -5.19818 -3.51322 53.70766 6.72866 2.74752 -24.03372 -9.17067 5.10649 3.48969
-0.01072 -0.00062 -0.00352 171.72631 -45.22614 -0.2345 57.26319 1.56111 2.80894 -6.30433 -5.54534 -0.21677 152.98087 -71.37662 -61.20589 12.90396 64.15552 5.27746 -7.92114 167.11095 67.79734 67.17286 9.5728 -88.05874 1.23662 10.89072 50.08399 -3.16668 -6.16839 -19.1336 -8.4184 -5.20542 -3.51907 53.69268 6.75557 2.97384 -24.0372 -9.13998 5.08448 3.47636
-0.01065 -0.00065 -0.00341 171.77547 -45.19823 -0.20829 57.27739 1.50258 2.83864 -6.44461 -5.32589 -0.21914 153.10481 -71.54853 -61.01681 12.89752 64.24393 5.29438 -7.86507 167.3476 67.75583 67.14492 9.48553 -90.10612 0.87111 10.94267 50.0631 -3.1887 -6.17902 -19.14729 -8.42097 -5.2086 -3.52172 53.67186 6.77759 3.18599 -24.0412 -9.11267 5.06381 3.46396
-0.01034 -0.00069 -0.00318 171.79977 -45.13321 -0.18457 57.2335 1.45903 2.8782 -6.57387 -5.10627 -0.22062 152.74009 -71.67505 -61.40966 12.87233 64.25447 5.3012 -7.76519 167.15193 67.80526 67.75664 9.39364 -90.51236 0.86655 10.82316 50.01945 -3.23659 -6.30452 -19.15642 -8.4092 -5.19989 -3.51471 53.62587 6.78595 3.34964 -24.04624 -9.09473 5.04753 3.45426
-0.00993 -0.00073 -0.0029 171.81412 -45.05638 -0.16115 57.16826 1.42101 2.92185 -6.6954 -4.88681 -0.2218 152.15817 -71.78658 -62.04955 12.83481 64.24148 5.3067 -7.64439 166.76455 67.89572 68.63302 9.29719 -90.28639 0.99868 10.63276 49.97143 -3.29339 -6.46501 -19.1646 -8.39294 -5.18722 -3.50458 53.57378 6.78927 3.49799 -24.05181 -9.08025 5.03266 3.4455
-0.00956 -0.00076 -0.00264 171.83311 -44.98619 -0.13711 57.11278 1.38058 2.96294 -6.81741 -4.66963 -0.22312 151.64846 -71.90689 -62.60343 12.79666 64.23984 5.3161 -7.52575 166.44353 67.97264 69.41454 9.20038 -90.29318 1.07882 10.46412 49.92807 -3.34532 -6.6023 -19.17373 -8.37958 -5.17688 -3.49635 53.52671 6.79488 3.65512 -24.05724 -9.06416 5.01693 3.43622
-0.00923 -0.0008 -0.00239 171.85138 -44.9114 -0.11494 57.05749 1.33966 3.00753 -6.953 -4.44131 -0.22442 151.26033 -72.02029 -63.04504 12.78597 64.22522 5.31334 -7.43678 166.21603 68.02956 70.09495 9.11425 -90.52723 1.11889 10.33922 49.8747 -3.4007 -6.76884 -19.18077 -8.36274 -5.16438 -3.48616 53.47121 6.80081 3.80719 -24.06226 -9.04805 5.00192 3.42724
-0.00878 -0.00083 -0.00212 171.86862 -44.84285 -0.08905 56.99619 1.30112 3.0457 -7.05718 -4.23671 -0.22568 150.55035 -72.14307 -63.78583 12.71389 64.24445 5.33359 -7.28297 165.7351 68.13777 71.04654 9.00401 -90.14687 1.27046 10.10708 49.84053 -3.45111 -6.88407 -19.19196 -8.35193 -5.15536 -3.47922 53.43123 6.80453 3.96378 -24.06828 -9.03301 4.98597 3.41799
-0.00802 -0.00086 -0.00177 171.88831 -44.79742 -0.05247 56.92809 1.26775 3.06406 -7.08739 -4.09717 -0.22688 149.16767 -72.30426 -65.21179 12.4855 64.25643 5.43376 -6.93915 164.73013 68.36904 72.67601 8.83637 -88.12505 1.73811 9.59042 49.86205 -3.48442 -6.84007 -19.21403 -8.35992 -5.15761 -3.48268 53.43781 6.80635 4.1534 -24.07647 -9.01817 4.96538 3.40664
-0.00713 -0.00089 -0.00139 171.90674 -44.75803 -0.01231 56.85372 1.23669 3.07609 -7.08345 -3.98166 -0.22804 147.43837 -72.47208 -66.94084 12.19375 64.32196 5.55389 -6.53461 163.45037 68.64992 74.56598 8.6434 -85.52364 2.30544 8.96997 49.90259 -3.51256 -6.74476 -19.24043 -8.37387 -5.16333 -3.48935 53.45965 6.80571 4.34487 -24.0857 -9.00456 4.94407 3.39517
-0.00629 -0.00092 -0.00102 171.92411 -44.71387 0.0261 56.77932 1.20453 3.0914 -7.08908 -3.85564 -0.22922 145.76249 -72.6331 -68.5878 11.92442 64.43445 5.65462 -6.16733 162.217 68.91578 76.34432 8.45646 -83.253 2.80025 8.39994 49.93321 -3.54395 -6.67931 -19.26532 -8.38442 -5.16707 -3.49414 53.47295 6.80405 4.52427 -24.09476 -8.99172 4.92431 3.38454
-0.00548 -0.00093 -0.00065 171.94846 -44.67793 0.0654 56.71675 1.17246 3.10449 -7.1229 -3.72815 -0.23041 144.52085 -72.81629 -70.02371 11.68194 64.2503 5.7998 -5.7551 161.32152 69.15912 78.11797 8.29147 -80.67922 3.41556 7.81107 49.9691 -3.57218 -6.58857 -19.28823 -8.39792 -5.17258 -3.50072 53.49294 6.81066 4.75035 -24.10262 -8.97373 4.89969 3.37078
-0.00458 -0.00099 -0.00029 171.95755 -44.62638 0.10322 56.62781 1.14105 3.1215 -7.08579 -3.60908 -0.23156 142.29226 -72.94667 -71.94893 11.3682 64.69052 5.85604 -5.42664 159.6428 69.45087 79.94161 8.07608 -78.60334 3.80075 7.24104 49.99856 -3.60525 -6.53645 -19.31631 -8.40654 -5.17502 -3.50422 53.50257 6.80027 4.88011 -24.11314 -8.96629 4.88471 3.3633
-0.0035 -0.00114 3e-05 171.92988 -44.53093 0.14048 56.47182 1.10757 3.14324 -6.89698 -3.51058 -0.23257 137.45405 -72.99876 -75.31202 10.87792 66.89813 5.67209 -5.30591 156.01722 69.94517 81.95403 7.71718 -78.07358 3.53119 6.71638 50.0058 -3.65627 -6.61543 -19.35761 -8.40213 -5.17049 -3.49978 53.48096 6.73695 4.74127 -24.13148 -8.99146 4.89894 3.37499
-0.00234 -0.00134 0.00034 171.88626 -44.41946 0.17544 56.28871 1.07513 3.17038 -6.63125 -3.41925 -0.23355 131.63342 -72.98275 -79.1251 10.31796 69.72163 5.39671 -5.27765 151.5899 70.46987 83.95773 7.3106 -78.0567 3.02294 6.21785 50.00591 -3.71171 -6.73262 -19.40401 -8.39233 -5.16243 -3.49193 53.44825 6.65778 4.5061 -24.15235 -9.02655 4.92245 3.39269
